PathFileType	4	(X/Y/Z)	C:/Users/opensim2020/Desktop/walking_exp_matlab/subject01_walking08_straight_04.trc																																																																																																																															
DataRate	CameraRate	NumFrames	NumMarkers	Units	OrigDataRate	OrigDataStartFrame	OrigNumFrames																																																																																																																											
100	100	7	43	mm	100	3691	256																																																																																																																											
Frame#	Time	LFHD			RFHD			LBHD			RBHD			C7			T10			CLAV			STRN			RBAK			LSHO			LUPA			LELB			LFRM			LWRA			LWRB			LFIN			RSHO			RUPA			RELB			RFRM			RWRA			RWRB			RFIN			LASI			RASI			LPSI			RPSI			LTHI			LKNE			LTIB			LANK			LHEE			LTOE			RTHI			RKNE			RTIB			RANK			RHEE			RTOE			*39			*40			*41			*42		
		X1	Y1	Z1	X2	Y2	Z2	X3	Y3	Z3	X4	Y4	Z4	X5	Y5	Z5	X6	Y6	Z6	X7	Y7	Z7	X8	Y8	Z8	X9	Y9	Z9	X10	Y10	Z10	X11	Y11	Z11	X12	Y12	Z12	X13	Y13	Z13	X14	Y14	Z14	X15	Y15	Z15	X16	Y16	Z16	X17	Y17	Z17	X18	Y18	Z18	X19	Y19	Z19	X20	Y20	Z20	X21	Y21	Z21	X22	Y22	Z22	X23	Y23	Z23	X24	Y24	Z24	X25	Y25	Z25	X26	Y26	Z26	X27	Y27	Z27	X28	Y28	Z28	X29	Y29	Z29	X30	Y30	Z30	X31	Y31	Z31	X32	Y32	Z32	X33	Y33	Z33	X34	Y34	Z34	X35	Y35	Z35	X36	Y36	Z36	X37	Y37	Z37	X38	Y38	Z38	X39	Y39	Z39	X40	Y40	Z40	X41	Y41	Z41	X42	Y42	Z42	X43	Y43	Z43
																																																																																																																																		
33	0.32	-872.547	1681.4585	-1571.20972	-845.57227	1689.84009	-1461.14929	-984.13605	1630.86877	-1547.97681	-960.28723	1638.70618	-1431.3291	-1011.90906	1441.15613	-1502.50891	-1043.27795	1148.53479	-1480.38196	-867.67346	1376.1189	-1510.74011	-822.29974	1221.72913	-1515.97681	-1057.69495	1247.64856	-1414.87317	-938.26837	1401.54126	-1667.65942	-952.58142	1216.81799	-1752.93835	-938.85547	1065.37634	-1761.05469	-869.34357	975.87427	-1792.2301	-755.32739	894.27649	-1783.39978	-807.37811	871.44049	-1803.68408	-740.21863	823.1864	-1821.03613	-919.87061	1407.1405	-1355.53162	-970.20129	1208.05737	-1247.29944	-971.39612	1082.95642	-1244.5022	-943.38708	966.28955	-1213.54932	-863.83594	849.43597	-1234.40613	-906.0722	850.73596	-1192.47046	-868.73865	772.81561	-1197.40344	-880.45038	939.04681	-1596.27295	-856.297	950.90796	-1380.74719	-1059.43835	950.9021	-1521.93799	-1041.56042	956.04828	-1377.62805	-917.17413	605.534	-1634.04272	-927.12671	471.54456	-1613.04932	-990.51141	290.99667	-1613.89661	-1025.45959	76.42078	-1553.34766	-1067.80273	48.71125	-1496.67517	-878.2735	37.77671	-1563.5791	-822.909	626.84369	-1311.30042	-786.78558	471.62564	-1333.95166	-879.33691	321.05142	-1326.68848	-955.58008	127.57238	-1370.25989	-1007.91779	97.57341	-1424.26025	-833.651	56.69416	-1361.92969	-861.95044	1722.37878	-1482.30518	-1973.17188	1023.40936	3101.99731	-2012.55676	1022.06781	3140.66016	NaN	NaN	NaN
34	0.33	-865.3913	1681.22607	-1571.81873	-838.69391	1689.45544	-1461.776	-977.22394	1631.00903	-1548.89063	-953.30603	1638.67834	-1431.95313	-1005.49329	1441.08105	-1503.50452	-1037.24927	1148.51929	-1481.36951	-861.40521	1375.80774	-1511.46887	-816.15845	1221.43774	-1516.78674	-1051.63501	1247.60095	-1416.0343	-931.59247	1401.63452	-1668.55322	-945.72058	1217.18884	-1754.26721	-931.47339	1065.69849	-1762.86804	-860.47278	977.11035	-1793.91553	-745.21307	897.47876	-1784.75806	-796.76642	873.89392	-1805.42859	-728.76508	826.76965	-1822.49304	-913.72876	1406.86523	-1356.36536	-964.86639	1207.96594	-1248.34863	-966.5509	1082.89038	-1245.68848	-939.242	966.13	-1214.46082	-860.40277	848.62469	-1235.2467	-903.04694	850.54877	-1193.40613	-865.75818	772.19733	-1197.87927	-874.84119	938.88538	-1597.18481	-850.48254	950.91217	-1381.59778	-1053.63232	950.83075	-1522.73706	-1035.57495	955.99664	-1378.45142	-913.56268	605.40924	-1634.5885	-925.104	471.42105	-1613.77222	-989.47784	291.16068	-1614.19519	-1025.31165	76.66029	-1553.47253	-1067.65564	49.26326	-1496.68311	-878.09863	37.69358	-1563.60132	-817.04034	626.95154	-1311.8717	-779.26959	472.2348	-1334.76355	-866.46692	318.82477	-1327.74316	-934.53259	122.11555	-1371.67883	-985.74786	90.37923	-1425.8667	-809.76404	55.61671	-1363.38318	-854.89429	1722.11438	-1482.90479	-1973.08447	1023.30084	3102.00684	-2012.53003	1022.03754	3140.78198	NaN	NaN	NaN
35	0.34	-858.32721	1680.96838	-1572.45605	-831.84424	1688.96851	-1462.22888	-970.315	1631.12695	-1549.72095	-946.61676	1638.63354	-1432.72961	-999.11884	1440.99036	-1504.48022	-1031.19678	1148.45068	-1482.25696	-855.04376	1375.59656	-1512.28833	-809.94208	1221.16406	-1517.59863	-1046.49841	1247.81287	-1417.49805	-924.85059	1401.64551	-1669.30017	-938.86365	1217.57129	-1755.69043	-924.17059	1065.93542	-1764.55188	-851.77087	978.35522	-1795.53162	-735.22601	900.57758	-1785.98608	-786.33795	876.18451	-1806.87256	-717.46515	830.22809	-1823.78491	-907.5556	1406.61731	-1357.12219	-959.5564	1207.81213	-1249.30859	-961.63458	1082.8208	-1246.46936	-934.92267	965.88831	-1215.22449	-856.82117	848.03009	-1235.83081	-899.30585	849.95685	-1194.06348	-862.76923	771.71606	-1198.43384	-869.0238	938.47412	-1597.94434	-844.53015	950.74872	-1382.34253	-1047.78027	950.73895	-1523.46631	-1029.55042	955.94086	-1379.21899	-910.02075	605.26324	-1635.03979	-922.90094	471.33676	-1614.49231	-988.38818	291.43042	-1614.63464	-1025.11096	76.81849	-1553.51941	-1067.47961	49.81602	-1496.64722	-877.90808	37.64069	-1563.63806	-811.14093	626.95172	-1312.19861	-772.03632	472.78638	-1335.70703	-853.82831	316.56287	-1328.84082	-913.4364	117.12276	-1373.04053	-963.47412	83.4597	-1426.9751	-785.79816	55.29528	-1364.72949	-847.84552	1721.79834	-1483.44995	-1973.1748	1023.48279	3101.85962	-2012.6322	1022.07172	3140.64502	NaN	NaN	NaN
36	0.35	-851.19519	1680.67725	-1572.96777	-824.94897	1688.55554	-1462.67517	-963.42798	1631.151	-1550.51953	-939.9646	1638.53271	-1433.42017	-992.70844	1440.88794	-1505.32947	-1025.09912	1148.37415	-1483.03296	-848.78168	1375.25659	-1512.81433	-803.82098	1220.7002	-1518.23938	-1039.479	1247.37268	-1418.05151	-918.1283	1401.59729	-1670.03833	-931.89758	1217.77417	-1756.88049	-916.94336	1066.06018	-1766.0929	-843.18927	979.45081	-1796.93286	-725.49261	903.58203	-1787.12476	-776.1048	878.25934	-1807.98254	-706.43799	833.53809	-1824.92188	-901.4516	1406.35425	-1357.83911	-954.22028	1207.63977	-1250.19897	-956.65253	1082.65295	-1247.521	-930.65741	965.61847	-1216.05334	-853.19977	847.38708	-1236.40308	-895.74237	849.59631	-1194.81726	-859.56787	771.1521	-1198.84265	-863.21271	938.12219	-1598.68848	-838.58691	950.63483	-1383.0199	-1041.91479	950.62329	-1524.11597	-1023.46552	955.83832	-1379.90271	-906.36017	605.21521	-1635.59338	-920.55402	471.22086	-1615.20667	-987.2334	291.68893	-1615.05469	-1025.09863	77.30816	-1553.79907	-1067.39233	50.41689	-1496.66956	-877.85114	37.59109	-1563.71509	-805.35547	626.73254	-1312.64099	-764.77203	473.10333	-1336.6615	-841.28625	314.20331	-1329.72742	-891.7077	112.52002	-1374.29993	-940.70172	77.09473	-1428.19434	-762.33997	55.46757	-1365.66724	-840.85815	1721.39783	-1483.84753	-1973.13574	1023.51361	3101.97534	-2012.53357	1021.96533	3140.67651	NaN	NaN	NaN
37	0.36	-844.12073	1680.328	-1573.35962	-817.86066	1688.27356	-1463.12292	-956.5274	1631.11841	-1551.23267	-933.34619	1638.41028	-1434.10474	-986.26581	1440.69629	-1506.11194	-1018.99908	1148.19348	-1483.71667	-842.32745	1374.86682	-1513.41833	-797.60541	1220.28796	-1518.79492	-1034.01111	1247.42639	-1419.26257	-911.34406	1401.45496	-1670.64709	-924.94507	1218.02673	-1758.16663	-909.83838	1066.11353	-1767.45593	-834.60199	980.32489	-1798.01196	-715.91974	906.42072	-1788.18506	-766.11414	880.33722	-1809.17334	-695.53473	836.60217	-1825.7782	-895.25665	1405.99475	-1358.39856	-948.89203	1207.33472	-1251.06128	-951.66754	1082.47192	-1248.38562	-926.25854	965.367	-1216.80554	-849.45618	846.63745	-1236.81995	-892.26428	849.24609	-1195.22839	-856.26642	770.54828	-1199.34119	-857.3924	937.68884	-1599.21301	-832.52032	950.47485	-1383.70154	-1035.98181	950.47992	-1524.66028	-1017.33063	955.72736	-1380.55408	-902.68616	605.17462	-1636.10913	-918.10529	471.02536	-1615.82349	-985.93311	292.03421	-1615.49438	-1024.84619	77.58742	-1553.85059	-1067.32031	51.11975	-1496.7229	-878.02527	37.65804	-1563.9314	-799.96259	626.53857	-1313.18896	-757.71692	473.18414	-1337.78088	-828.39331	312.22971	-1330.68896	-870.66486	108.14003	-1375.12073	-917.10614	70.886	-1428.86926	-739.04895	55.90051	-1366.39087	-833.86816	1720.99487	-1484.26111	-1973.11719	1023.32977	3101.92505	-2012.58899	1022.05084	3140.69678	NaN	NaN	NaN
38	0.37	-837.0838	1679.91846	-1573.75549	-811.1991	1687.63684	-1463.35889	-949.60718	1630.98071	-1551.82019	-926.63849	1638.20667	-1434.64526	-979.77417	1440.48486	-1506.81116	-1012.75671	1147.99585	-1484.33838	-835.94519	1374.47119	-1513.90125	-791.34802	1219.84692	-1519.25476	-1027.16589	1246.95251	-1419.7782	-904.62775	1401.255	-1671.16589	-917.95514	1218.05029	-1759.15833	-902.77728	1066.10522	-1768.73535	-826.48804	981.32416	-1799.32959	-706.58673	909.22638	-1789.19482	-756.23029	882.36346	-1810.4209	-685.14612	839.74487	-1826.86523	-889.1026	1405.63025	-1358.91553	-943.50214	1207.09937	-1251.82642	-946.58881	1082.28357	-1249.22717	-921.86548	965.14838	-1217.45789	-845.54938	845.97656	-1237.24255	-888.52289	848.84766	-1195.96667	-852.88141	769.93048	-1199.60583	-851.55939	937.35846	-1599.9303	-826.30023	950.19427	-1384.37891	-1030.0271	950.37488	-1525.09534	-1011.14575	955.5545	-1381.06042	-898.7868	605.04199	-1636.50952	-915.45862	470.9317	-1616.49585	-984.39917	292.2533	-1615.78223	-1024.61743	78.0323	-1554.00281	-1067.12378	51.88513	-1496.70325	-877.99945	37.57581	-1564.05835	-794.10815	625.94855	-1313.44617	-750.77722	473.24966	-1338.73364	-815.44104	309.95343	-1331.63623	-849.74847	104.24196	-1375.80859	-894.35205	66.19181	-1430.04224	-716.1311	56.69155	-1367.01208	-826.86963	1720.63684	-1484.70215	-1973.06274	1023.87439	3101.85498	-2012.52588	1022.01953	3140.79004	NaN	NaN	NaN
39	0.38	-830.04102	1679.49207	-1574.07117	-804.38519	1687.20923	-1463.65283	-942.7063	1630.77258	-1552.36438	-919.99194	1637.92651	-1435.18848	-973.31049	1440.18091	-1507.38293	-1006.52911	1147.71045	-1484.79272	-829.59082	1374.05762	-1514.24023	-784.94324	1219.46631	-1519.71399	-1021.31213	1246.77942	-1420.60095	-897.87439	1401.00659	-1671.64612	-910.99097	1217.96313	-1759.87354	-895.77655	1066.01147	-1769.85754	-818.36993	982.13861	-1800.33948	-697.44507	911.79468	-1790.07764	-746.70648	884.07727	-1811.05725	-674.91943	842.50616	-1827.55237	-882.91437	1405.31213	-1359.41113	-938.18634	1206.88477	-1252.56763	-941.49164	1082.00793	-1249.98596	-917.41296	964.79022	-1218.1311	-841.53406	845.35657	-1237.48804	-884.44189	848.23462	-1196.23694	-849.25983	769.27893	-1199.81702	-845.70734	936.97034	-1600.52734	-819.99133	949.8512	-1384.95117	-1023.99963	950.21704	-1525.46033	-1004.8952	955.37604	-1381.54126	-894.7016	604.80542	-1636.84875	-912.55536	470.754	-1616.98279	-982.7309	292.57254	-1616.09058	-1024.37671	78.44682	-1554.11121	-1066.88757	52.65898	-1496.65002	-877.89752	37.55011	-1564.15649	-788.68939	625.35437	-1313.83484	-743.8374	473.20502	-1339.95618	-802.45538	307.77173	-1332.26123	-828.93671	100.88832	-1376.40063	-872.24103	61.27965	-1430.60876	-693.60834	57.77588	-1367.51147	-819.89844	1720.17029	-1484.88916	-1973.16663	1023.91852	3101.89648	-2012.55505	1021.97498	3140.80981	NaN	NaN	NaN
